Coordinates
version=1
nRows=16
nColumns=40
inDegrees=yes
endheader
time	pelvis_tilt	pelvis_list	pelvis_rotation	pelvis_tx	pelvis_ty	pelvis_tz	hip_flexion_r	hip_adduction_r	hip_rotation_r	knee_angle_r	knee_angle_r_beta	ankle_angle_r	subtalar_angle_r	mtp_angle_r	hip_flexion_l	hip_adduction_l	hip_rotation_l	knee_angle_l	knee_angle_l_beta	ankle_angle_l	subtalar_angle_l	mtp_angle_l	lumbar_extension	lumbar_bending	lumbar_rotation	arm_flex_r	arm_add_r	arm_rot_r	elbow_flex_r	pro_sup_r	wrist_flex_r	wrist_dev_r	arm_flex_l	arm_add_l	arm_rot_l	elbow_flex_l	pro_sup_l	wrist_flex_l	wrist_dev_l
1760624924.38971496	     10.15500354	     -1.85434539	      0.35250016	      0.18651129	      0.85294630	     -0.00015028	     80.00000000	     -7.00000000	      0.00000000	     80.00000000	      1.39626340	      0.00000000	      0.00000000	      0.00000000	     80.00000000	     -7.00000000	      0.00000000	     80.00000000	      1.39626340	      0.00000000	      0.00000000	      0.00000000	    -17.44014575	     -0.77759391	      3.97223698	      3.53605998	     -1.04475344	     12.41424162	      0.00000000	      1.25266513	    -70.00000021	    -24.99999983	      5.04437264	     -0.03846638	      0.69874348	      0.00000000	     23.67440362	    -70.00000021	    -24.99999983
1760624924.39971495	     10.16001724	     -1.86175618	      0.35548341	      0.18653801	      0.85294099	     -0.00013431	     80.00000000	     -7.00000000	      0.00000000	     80.00000000	      1.39626340	      0.00000000	      0.00000000	      0.00000000	     80.00000000	     -7.00000000	      0.00000000	     80.00000000	      1.39626340	      0.00000000	      0.00000000	      0.00000000	    -17.44328081	     -0.79299920	      3.96985568	      3.52353944	     -1.05206613	     12.41621726	      0.00000000	      1.25262126	    -70.00000021	    -24.99999983	      5.04629270	     -0.03470854	      0.69811276	      0.00000000	     23.67580358	    -70.00000021	    -24.99999983
1760624924.40971494	     10.16065209	     -1.86264749	      0.35573194	      0.18655823	      0.85292426	     -0.00014135	     80.00000000	     -7.00000000	      0.00000000	     80.00000000	      1.39626340	      0.00000000	      0.00000000	      0.00000000	     80.00000000	     -7.00000000	      0.00000000	     80.00000000	      1.39626340	      0.00000000	      0.00000000	      0.00000000	    -17.44337174	     -0.79452101	      3.96964214	      3.52285680	     -1.05251758	     12.41639271	      0.00000000	      1.25262728	    -70.00000021	    -24.99999983	      5.04685189	     -0.03410042	      0.69809114	      0.00000000	     23.67594269	    -70.00000021	    -24.99999983
1760624924.41971493	     10.16742169	     -1.86912681	      0.35810343	      0.18659144	      0.85293626	     -0.00013740	     80.00000000	     -7.00000000	      0.00000000	     80.00000000	      1.39626340	      0.00000000	      0.00000000	      0.00000000	     80.00000000	     -7.00000000	      0.00000000	     80.00000000	      1.39626340	      0.00000000	      0.00000000	      0.00000000	    -17.44341198	     -0.80807989	      3.96720726	      3.51363285	     -1.05901146	     12.41823000	      0.00000000	      1.25270405	    -70.00000021	    -24.99999983	      5.05156998	     -0.02815027	      0.69785262	      0.00000000	     23.67739968	    -70.00000021	    -24.99999983
1760624924.42971492	     10.16797153	     -1.86992563	      0.35818747	      0.18660536	      0.85292407	     -0.00017943	     80.00000000	     -7.00000000	      0.00000000	     80.00000000	      1.39626340	      0.00000000	      0.00000000	      0.00000000	     80.00000000	     -7.00000000	      0.00000000	     80.00000000	      1.39626340	      0.00000000	      0.00000000	      0.00000000	    -17.44354358	     -0.80936089	      3.96715994	      3.51307945	     -1.05928415	     12.41840542	      0.00000000	      1.25270904	    -70.00000021	    -24.99999983	      5.05201241	     -0.02808716	      0.69785899	      0.00000000	     23.67755485	    -70.00000021	    -24.99999983
1760624924.43971491	     10.17702100	     -1.87224490	      0.36220093	      0.18664866	      0.85296212	     -0.00020624	     80.00000000	     -7.00000000	      0.00000000	     80.00000000	      1.39626340	      0.00000000	      0.00000000	      0.00000000	     80.00000000	     -7.00000000	      0.00000000	     80.00000000	      1.39626340	      0.00000000	      0.00000000	      0.00000000	    -17.44458299	     -0.82328421	      3.96623145	      3.50243463	     -1.06917985	     12.42152901	      0.00000000	      1.25286589	    -70.00000021	    -24.99999983	      5.05766535	     -0.02366769	      0.69770858	      0.00000000	     23.68002648	    -70.00000021	    -24.99999983
1760624924.44971490	     10.17740412	     -1.87297200	      0.36254423	      0.18664736	      0.85294969	     -0.00023772	     80.00000000	     -7.00000000	      0.00000000	     80.00000000	      1.39626340	      0.00000000	      0.00000000	      0.00000000	     80.00000000	     -7.00000000	      0.00000000	     80.00000000	      1.39626340	      0.00000000	      0.00000000	      0.00000000	    -17.44491658	     -0.82460832	      3.96637572	      3.50201886	     -1.06917938	     12.42169772	      0.00000000	      1.25285985	    -70.00000021	    -24.99999983	      5.05758465	     -0.02317354	      0.69768380	      0.00000000	     23.68016889	    -70.00000021	    -24.99999983
1760624924.45971489	     10.17809817	     -1.87581599	      0.36378679	      0.18667029	      0.85297459	     -0.00028216	     80.00000000	     -7.00000000	      0.00000000	     80.00000000	      1.39626340	      0.00000000	      0.00000000	      0.00000000	     80.00000000	     -7.00000000	      0.00000000	     80.00000000	      1.39626340	      0.00000000	      0.00000000	      0.00000000	    -17.44553125	     -0.82922992	      3.96643876	      3.50095232	     -1.07052175	     12.42221820	      0.00000000	      1.25288829	    -70.00000021	    -24.99999983	      5.05806425	     -0.02174252	      0.69767725	      0.00000000	     23.68059053	    -70.00000021	    -24.99999983
1760624924.46971512	     10.17847915	     -1.87705450	      0.36401559	      0.18667895	      0.85298567	     -0.00032053	     80.00000000	     -7.00000000	      0.00000000	     80.00000000	      1.39626340	      0.00000000	      0.00000000	      0.00000000	     80.00000000	     -7.00000000	      0.00000000	     80.00000000	      1.39626340	      0.00000000	      0.00000000	      0.00000000	    -17.44560909	     -0.83097536	      3.96636745	      3.50054909	     -1.07083688	     12.42241050	      0.00000000	      1.25289884	    -70.00000021	    -24.99999983	      5.05852701	     -0.02158224	      0.69771628	      0.00000000	     23.68077233	    -70.00000021	    -24.99999983
1760624924.47971511	     10.17918989	     -1.87933161	      0.36492322	      0.18669492	      0.85302835	     -0.00037635	     80.00000000	     -7.00000000	      0.00000000	     80.00000000	      1.39626340	      0.00000000	      0.00000000	      0.00000000	     80.00000000	     -7.00000000	      0.00000000	     80.00000000	      1.39626340	      0.00000000	      0.00000000	      0.00000000	    -17.44577018	     -0.83461764	      3.96644895	      3.49981654	     -1.07278213	     12.42292438	      0.00000000	      1.25297450	    -70.00000021	    -24.99999983	      5.05933378	     -0.02240736	      0.69781191	      0.00000000	     23.68117902	    -70.00000021	    -24.99999983
1760624924.48971510	     10.18037716	     -1.88101335	      0.36595336	      0.18672738	      0.85305221	     -0.00043242	     80.00000000	     -7.00000000	      0.00000000	     80.00000000	      1.39626340	      0.00000000	      0.00000000	      0.00000000	     80.00000000	     -7.00000000	      0.00000000	     80.00000000	      1.39626340	      0.00000000	      0.00000000	      0.00000000	    -17.44546790	     -0.83770982	      3.96685459	      3.50004630	     -1.07453324	     12.42354551	      0.00000000	      1.25312506	    -70.00000021	    -24.99999983	      5.06047783	     -0.02390380	      0.69795387	      0.00000000	     23.68161138	    -70.00000021	    -24.99999983
1760624924.49971509	     10.19154528	     -1.87400418	      0.37450610	      0.18675238	      0.85310119	     -0.00047587	     80.00000000	     -7.00000000	      0.00000000	     80.00000000	      1.39626340	      0.00000000	      0.00000000	      0.00000000	     80.00000000	     -7.00000000	      0.00000000	     80.00000000	      1.39626340	      0.00000000	      0.00000000	      0.00000000	    -17.44886402	     -0.85111958	      3.96992469	      3.49266538	     -1.09824448	     12.43049867	      0.00000000	      1.25411382	    -70.00000021	    -24.99999983	      5.07649552	     -0.05164440	      0.69946198	      0.00000000	     23.68708952	    -70.00000021	    -24.99999983
1760624924.50971508	     10.19156216	     -1.87531911	      0.37515255	      0.18677924	      0.85315002	     -0.00052571	     80.00000000	     -7.00000000	      0.00000000	     80.00000000	      1.39626340	      0.00000000	      0.00000000	      0.00000000	     80.00000000	     -7.00000000	      0.00000000	     80.00000000	      1.39626340	      0.00000000	      0.00000000	      0.00000000	    -17.44925497	     -0.85352749	      3.97010413	      3.49256842	     -1.09888180	     12.43089726	      0.00000000	      1.25412605	    -70.00000021	    -24.99999983	      5.07754377	     -0.05233502	      0.69950233	      0.00000000	     23.68740938	    -70.00000021	    -24.99999983
1760624924.51971507	     10.19236901	     -1.87634698	      0.37581357	      0.18680518	      0.85317681	     -0.00058787	     80.00000000	     -7.00000000	      0.00000000	     80.00000000	      1.39626340	      0.00000000	      0.00000000	      0.00000000	     80.00000000	     -7.00000000	      0.00000000	     80.00000000	      1.39626340	      0.00000000	      0.00000000	      0.00000000	    -17.44900898	     -0.85562017	      3.97046147	      3.49309200	     -1.09985259	     12.43141109	      0.00000000	      1.25421588	    -70.00000021	    -24.99999983	      5.07906230	     -0.05410977	      0.69964388	      0.00000000	     23.68780201	    -70.00000021	    -24.99999983
1760624924.52971506	     10.20322319	     -1.87220599	      0.38532801	      0.18680145	      0.85319105	     -0.00062033	     80.00000000	     -7.00000000	      0.00000000	     80.00000000	      1.39626340	      0.00000000	      0.00000000	      0.00000000	     80.00000000	     -7.00000000	      0.00000000	     80.00000000	      1.39626340	      0.00000000	      0.00000000	      0.00000000	    -17.45099395	     -0.87133952	      3.97362615	      3.49320529	     -1.11599615	     12.43885475	      0.00000000	      1.25507622	    -70.00000021	    -24.99999983	      5.09945099	     -0.07469325	      0.70196341	      0.00000000	     23.69414203	    -70.00000021	    -24.99999983
1760624924.53971505	     10.20251598	     -1.87130294	      0.38533710	      0.18683238	      0.85324566	     -0.00068429	     80.00000000	     -7.00000000	      0.00000000	     80.00000000	      1.39626340	      0.00000000	      0.00000000	      0.00000000	     80.00000000	     -7.00000000	      0.00000000	     80.00000000	      1.39626340	      0.00000000	      0.00000000	      0.00000000	    -17.45189749	     -0.87131509	      3.97404232	      3.49324746	     -1.11592219	     12.43927579	      0.00000000	      1.25509879	    -70.00000021	    -24.99999983	      5.10050451	     -0.07667906	      0.70206918	      0.00000000	     23.69449837	    -70.00000021	    -24.99999983
